<?xml version="1.0" encoding="UTF-8"?>

<!DOCTYPE svg PUBLIC '-//W3C//DTD SVG 1.0//EN' 'http://www.w3.org/TR/2001/REC-SVG-20010904/DTD/svg10.dtd'>
<svg xmlns:xlink="http://www.w3.org/1999/xlink" viewBox="0 0 102 102" preserveAspectRatio="none" style="fill-opacity:1; color-rendering:auto; color-interpolation:auto; stroke:black; text-rendering:auto; stroke-linecap:square; stroke-miterlimit:10; stroke-opacity:1; shape-rendering:auto; fill:black; stroke-dasharray:none; font-weight:normal; stroke-width:1; font-family:&apos;Dialog&apos;; font-style:normal; stroke-linejoin:miter; font-size:12; stroke-dashoffset:0; image-rendering:auto;" xmlns="http://www.w3.org/2000/svg">
  <!--Generated by the Batik Graphics2D SVG Generator-->
  <defs id="genericDefs" />
  <g>
    <g style="fill:white; stroke:white;" transform="translate(-15,-36)">
      <path vector-effect="non-scaling-stroke" d="M16 53.6667 L16 120.3333 C16 129.5381 23.4619 137 32.6667 137 L99.3333 137 C108.5381 137 116 129.5381 116 120.3333 L116 53.6667 C116 44.4619 108.5381 37 99.3333 37 L32.6667 37 C23.4619 37 16 44.4619 16 53.6667 Z" style="stroke:none;" />
    </g>
    <g style="stroke-width:2; stroke-miterlimit:8; stroke-linecap:butt;" transform="translate(-15,-36)">
      <path vector-effect="non-scaling-stroke" d="M16 53.6667 L16 120.3333 C16 129.5381 23.4619 137 32.6667 137 L99.3333 137 C108.5381 137 116 129.5381 116 120.3333 L116 53.6667 C116 44.4619 108.5381 37 99.3333 37 L32.6667 37 C23.4619 37 16 44.4619 16 53.6667 Z" style="fill:none;" />
    </g>
  </g>
</svg>
